<svg viewBox="0 0 150 150" xmlns="http://www.w3.org/2000/svg"><path id="Path" fill="#20c997" fill-rule="evenodd" stroke="none" d="M 68.378052 3.782928 C 72.34243 1.500183 77.222198 1.500183 81.186584 3.782928 L 133.302444 33.878052 C 137.263977 36.167847 139.7052 40.395058 139.708542 44.970734 L 139.708542 105.157318 C 139.708542 109.730484 137.264648 113.959763 133.302444 116.25 L 81.186584 146.341461 C 77.222198 148.624222 72.34243 148.624222 68.378052 146.341461 C 51.006126 136.308807 33.632957 126.27832 16.258537 116.25 C 12.299522 113.958176 9.860179 109.731834 9.856098 105.157318 L 9.856098 44.970734 C 9.856098 40.401222 12.3 36.164635 16.258537 33.878052 L 68.378052 3.782928 Z"></path><path id="path1" fill="#42545a" fill-rule="evenodd" stroke="none" d="M 9.146341 112.55854 L 43.671951 75.062202 L 74.87561 150.036575 L 9.146341 112.55854 Z"></path><path id="path2" fill="#42545a" fill-rule="evenodd" stroke="none" d="M 43.671951 75.062195 L 9.599999 37.309753 L 9.146341 112.55854 L 43.671951 75.062195 Z"></path><path id="path3" fill="#42545a" fill-rule="evenodd" stroke="none" d="M 43.671951 75.062195 L 74.87561 0.084137 L 9.599999 37.309753 L 43.671951 75.065857 L 43.671951 75.062195 Z"></path><path id="path4" fill="#42545a" fill-rule="evenodd" stroke="none" d="M 74.87561 0.084137 L 139.803665 112.551224 L 43.671951 75.062195"></path><path id="path5" fill="#42545a" fill-rule="evenodd" stroke="none" d="M 74.87561 150.164627 L 139.803665 112.55854 L 43.671951 75.062202 L 74.87561 150.164627 Z"></path><path id="path6" fill="#42545a" fill-rule="evenodd" stroke="none" d="M 139.80365 112.551224 L 139.80365 37.573174 L 74.87561 0.084137 L 139.80365 112.551224 Z"></path><path id="path7" fill="#1a67fd" fill-opacity="0.5" fill-rule="evenodd" stroke="none" d="M 65.396339 45.530487 L 96.841461 76.975616 L 65.396339 108.424393 L 57.153656 100.181702 L 80.356102 76.975616 L 57.153656 53.77317 L 65.396339 45.530487 Z"></path><path id="path8" fill="#1bc5be" fill-rule="evenodd" stroke="none" d="M 96.841461 73.280487 L 88.598778 65.034142 L 57.153656 96.482925 L 65.396339 104.725609 L 96.841461 73.276825 L 96.841461 73.280487 Z"></path><path id="path9" fill="#1bc5be" fill-rule="evenodd" stroke="none" d="M 65.396339 41.831711 L 57.153656 50.074387 L 88.598778 81.519516 L 96.841461 73.276825 L 65.396339 41.831711 Z"></path></svg>