<svg width="128" height="128" viewBox="0 0 128 128" xmlns="http://www.w3.org/2000/svg">
    <path id="Path" fill="#17a2b8" stroke="none" d="M 13.397056 99.914406 L 53.866142 122.116241 C 60.805466 125.947899 67.453201 126.004395 74.508965 122.116241 L 114.978058 99.914406 C 120.401176 96.927849 123.374863 93.885025 123.374863 85.714409 L 123.374863 41.874313 C 123.374863 33.92897 120.342712 31.055176 115.386581 28.293892 L 74.800568 5.979538 C 67.569885 1.978622 60.630558 2.035118 53.574543 5.979538 L 12.988771 28.293892 C 8.032146 31.055176 5 33.92897 5 41.874313 L 5 85.714409 C 5 93.885025 7.973926 96.927849 13.397056 99.914406 Z M 18.878407 92.02533 C 15.554664 90.222145 14.446751 88.475464 14.446751 85.432388 L 14.446751 42.268608 C 14.446751 39.451302 15.612884 37.817131 18.528591 36.182961 L 57.714855 14.48819 C 62.146511 12.065186 66.111908 11.952423 70.660255 14.48819 L 109.846519 36.182961 C 112.762726 37.817131 113.928352 39.451302 113.928352 42.268608 L 113.928352 85.432388 C 113.928352 88.475464 112.82019 90.222145 109.496696 92.02533 L 70.660255 113.382065 C 65.995224 115.917595 62.204975 115.861336 57.714855 113.382065 Z"/>
    <text id="text1" xml:space="preserve" x="19" y="80" font-family="Graphik" font-size="60" font-weight="700" fill="#17a2b8">&lt;/></text>
    <g id="opengist"/>
</svg>





